<?xml version="1.0" encoding="utf-8"?>
<!-- Generator: Adobe Illustrator 26.0.0, SVG Export Plug-In . SVG Version: 6.00 Build 0)  -->
<svg version="1.1" id="Layer_1" xmlns="http://www.w3.org/2000/svg" xmlns:xlink="http://www.w3.org/1999/xlink" x="0px" y="0px"
	 viewBox="0 0 500 500" style="enable-background:new 0 0 500 500;" xml:space="preserve">
<style type="text/css">
	.st0{fill:#F1ECE6;}
	.st1{display:none;}
	.st2{display:inline;}
	.st3{fill:#231F20;}
	.st4{clip-path:url(#SVGID_00000083058455460470200580000005155626463399230123_);fill:#F1ECE6;}
	.st5{clip-path:url(#SVGID_00000083058455460470200580000005155626463399230123_);}
	.st6{display:none;clip-path:url(#SVGID_00000083058455460470200580000005155626463399230123_);}
	.st7{fill:#FFFFFF;}
	.st8{fill:#707070;}
</style>
<g>
	<g>
		<path class="st8" d="M250,497.5c-66.11,0-128.26-25.74-175.01-72.49C28.24,378.26,2.5,316.11,2.5,250S28.24,121.74,74.99,74.99
			C121.74,28.24,183.89,2.5,250,2.5c66.11,0,128.26,25.74,175.01,72.49S497.5,183.89,497.5,250s-25.74,128.26-72.49,175.01
			S316.11,497.5,250,497.5z M250,12.5C119.04,12.5,12.5,119.04,12.5,250S119.04,487.5,250,487.5S487.5,380.96,487.5,250
			S380.96,12.5,250,12.5z"/>
	</g>
	<g>
		<path d="M215.78,334.1v-4.64l26.97-10.73V174.02l-49.3,23.2V186.2l71.34-43.5h13.05v176.03l24.07,10.73v4.64H215.78z"/>
	</g>
</g>
</svg>
