<?xml version="1.0" encoding="utf-8"?>
<!-- Generator: Adobe Illustrator 26.0.0, SVG Export Plug-In . SVG Version: 6.00 Build 0)  -->
<svg version="1.1" id="Layer_1" xmlns="http://www.w3.org/2000/svg" xmlns:xlink="http://www.w3.org/1999/xlink" x="0px" y="0px"
	 viewBox="0 0 500 500" style="enable-background:new 0 0 500 500;" xml:space="preserve">
<style type="text/css">
	.st0{fill:#F1ECE6;}
	.st1{display:none;}
	.st2{display:inline;}
	.st3{fill:#231F20;}
	.st4{clip-path:url(#SVGID_00000131344351348468046530000005227978850853815985_);fill:#F1ECE6;}
	.st5{clip-path:url(#SVGID_00000131344351348468046530000005227978850853815985_);}
	.st6{display:none;clip-path:url(#SVGID_00000131344351348468046530000005227978850853815985_);}
	.st7{fill:#FFFFFF;}
	.st8{fill:#707070;}
</style>
<g>
	<g>
		<path class="st8" d="M250,497.5c-66.11,0-128.26-25.74-175.01-72.49C28.24,378.26,2.5,316.11,2.5,250S28.24,121.74,74.99,74.99
			C121.74,28.24,183.89,2.5,250,2.5c66.11,0,128.26,25.74,175.01,72.49S497.5,183.89,497.5,250s-25.74,128.26-72.49,175.01
			S316.11,497.5,250,497.5z M250,12.5C119.04,12.5,12.5,119.04,12.5,250S119.04,487.5,250,487.5S487.5,380.96,487.5,250
			S380.96,12.5,250,12.5z"/>
	</g>
	<g>
		<path d="M187.36,334.1v-9.28c16.04-17.98,29.34-33.06,39.88-45.24c10.54-12.18,18.85-22.43,24.94-30.74
			c6.09-8.31,10.58-15.56,13.48-21.75c2.9-6.19,4.74-12.22,5.51-18.12c0.77-5.89,1.16-12.52,1.16-19.87
			c0-10.24-2.51-18.65-7.54-25.23c-5.03-6.57-11.89-9.86-20.59-9.86c-19.72,0-29.58,10.93-29.58,32.77v13.34l-1.74,2.32h-17.11
			c-3.87,0-6.77-0.67-8.7-2.03c-1.94-1.35-2.9-4.73-2.9-10.15c0-5.41,1.69-10.88,5.07-16.38c3.38-5.51,8.65-10.88,15.81-16.1
			c5.02-3.48,9.86-6.57,14.5-9.28c4.64-2.71,9.81-4.83,15.52-6.38c5.7-1.54,12.42-2.32,20.15-2.32c10.83,0,20.44,2.32,28.86,6.96
			c8.41,4.64,14.98,10.83,19.72,18.56c4.74,7.73,7.1,16.34,7.1,25.81c0,6.19-0.72,11.89-2.17,17.11s-4.01,10.63-7.68,16.24
			c-3.68,5.61-8.85,11.99-15.52,19.14c-6.67,7.16-15.13,15.71-25.37,25.67c-10.25,9.96-22.81,21.89-37.7,35.81h73.66l15.95-28.42
			h4.64l-2.9,57.42H187.36z"/>
	</g>
</g>
</svg>
