<?xml version="1.0" encoding="utf-8"?>
<!-- Generator: Adobe Illustrator 26.0.0, SVG Export Plug-In . SVG Version: 6.00 Build 0)  -->
<svg version="1.1" id="Layer_1" xmlns="http://www.w3.org/2000/svg" xmlns:xlink="http://www.w3.org/1999/xlink" x="0px" y="0px"
	 viewBox="0 0 500 500" style="enable-background:new 0 0 500 500;" xml:space="preserve">
<style type="text/css">
	.st0{fill:#F1ECE6;}
	.st1{display:none;}
	.st2{display:inline;}
	.st3{fill:#231F20;}
	.st4{clip-path:url(#SVGID_00000093162930883104635260000010629832257749215894_);fill:#F1ECE6;}
	.st5{clip-path:url(#SVGID_00000093162930883104635260000010629832257749215894_);}
	.st6{display:none;clip-path:url(#SVGID_00000093162930883104635260000010629832257749215894_);}
	.st7{fill:#FFFFFF;}
	.st8{fill:#707070;}
</style>
<g>
	<g>
		<path class="st8" d="M250,497.5c-66.11,0-128.26-25.74-175.01-72.49C28.24,378.26,2.5,316.11,2.5,250S28.24,121.74,74.99,74.99
			C121.74,28.24,183.89,2.5,250,2.5c66.11,0,128.26,25.74,175.01,72.49S497.5,183.89,497.5,250s-25.74,128.26-72.49,175.01
			S316.11,497.5,250,497.5z M250,12.5C119.04,12.5,12.5,119.04,12.5,250S119.04,487.5,250,487.5S487.5,380.96,487.5,250
			S380.96,12.5,250,12.5z"/>
	</g>
	<g>
		<path d="M247.1,337c-8.89,0-17.3-1.06-25.23-3.19c-7.93-2.12-15.18-5.41-21.75-9.86c-5.41-3.87-9.67-7.92-12.76-12.18
			c-3.09-4.25-4.64-8.79-4.64-13.63c0-4.45,0.87-7.25,2.61-8.41c1.74-1.16,4.45-1.74,8.12-1.74h16.82l2.61,2.61v9.86
			c0,7.35,2.75,13,8.27,16.96c5.51,3.96,13.48,5.94,23.92,5.94c11.41,0,20.15-3.67,26.25-11.02c6.09-7.34,9.13-16.72,9.13-28.13
			c0-13.34-3.48-23.78-10.44-31.32c-6.96-7.54-19.04-11.31-36.25-11.31h-15.95v-13.34h11.6c12.57,0,22.57-3.87,30.02-11.6
			c7.44-7.73,11.17-17.69,11.17-29.87c0-11.6-2.32-20.1-6.96-25.52c-4.64-5.41-11.31-8.12-20.01-8.12c-7.54,0-13.77,2.37-18.71,7.1
			c-4.93,4.74-7.39,11.07-7.39,19v11.89l-2.32,2.61h-16.24c-3.87,0-6.77-0.62-8.7-1.88c-1.94-1.26-2.9-4.3-2.9-9.13
			c0-10.83,6.67-20.4,20.01-28.71c7.54-4.83,14.6-8.41,21.17-10.73c6.57-2.32,14.6-3.48,24.07-3.48c10.63,0,20.25,1.88,28.85,5.65
			c8.6,3.77,15.37,9.09,20.3,15.95c4.93,6.87,7.39,14.84,7.39,23.93c0,10.83-4.4,20.21-13.19,28.13
			c-8.8,7.93-20.06,13.44-33.79,16.53c18.56,2.52,32.72,8.22,42.49,17.11c9.76,8.89,14.64,20.59,14.64,35.09
			c0,10.25-3.33,19.53-10,27.84c-6.67,8.32-15.51,14.89-26.53,19.72S259.86,337,247.1,337z"/>
	</g>
</g>
<g>
	<g>
		<path class="st8" d="M730,977.5c-66.11,0-128.26-25.74-175.01-72.49C508.24,858.26,482.5,796.11,482.5,730
			s25.74-128.26,72.49-175.01c46.75-46.75,108.9-72.49,175.01-72.49c66.11,0,128.26,25.74,175.01,72.49S977.5,663.89,977.5,730
			s-25.74,128.26-72.49,175.01S796.11,977.5,730,977.5z M730,492.5c-130.96,0-237.5,106.54-237.5,237.5S599.04,967.5,730,967.5
			S967.5,860.96,967.5,730S860.96,492.5,730,492.5z"/>
	</g>
</g>
</svg>
